PathFileType	4	(X/Y/Z)	D:\TRACE\v60_Jaco2_6-2-23\BothDRS_Motion1_7-v60.trc
DataRate	CameraRate	NumFrames	NumMarkers	Units	OrigDataRate	OrigDataStartFrame	OrigNumFrames
100.00	100.00	      31	9	mm	100.00	938	      7500
Frame#	Time	front left toe			Front right toe			aft left toe			aft right toe			Arm			FL body			FR body			AL Body			AR Body			
		X1	Y1	Z1	X2	Y2	Z2	X3	Y3	Z3	X4	Y4	Z4	X5	Y5	Z5	X6	Y6	Z6	X7	Y7	Z7	X8	Y8	Z8	X9	Y9	Z9	

938	9.370	-180.42101	120.08028	-247.48056	210.17252	5.20580	-268.39044	-141.04527	25.92579	377.51639	206.12363	139.06068	364.78748	21.23942	1199.81653	-327.87677	-75.31780	569.00543	-390.56491	84.97272	568.38965	-399.02795	-26.01918	568.17468	553.91980	128.56349	560.95929	545.87079	
939	9.380	-179.63248	128.44687	-247.68864	209.69377	5.18825	-268.22400	-143.02153	26.89448	377.25516	207.68231	148.54887	364.44373	20.52148	1199.75220	-328.11948	-75.51764	568.22961	-390.51425	84.79980	567.88751	-398.96161	-26.90463	568.55927	553.99902	130.92940	562.65985	547.97900	
940	9.390	-179.65730	135.30435	-247.78618	209.06419	5.08365	-268.28568	-143.37263	26.72347	377.23535	208.82011	156.07205	363.72675	19.91330	1199.23462	-328.61130	-74.98759	567.47644	-390.13901	84.71477	567.56781	-398.82352	-27.19934	568.60223	554.75879	130.26790	562.77234	548.21710	
941	9.400	-179.89243	140.07013	-248.08368	208.50702	4.84313	-268.23590	-143.93459	26.60461	377.14874	210.43622	160.66772	363.11057	19.57999	1198.49561	-329.11768	-74.87746	567.05945	-390.02997	84.60053	566.64655	-398.00076	-27.87872	568.59747	554.92004	129.64476	562.78345	548.48920	
942	9.410	-180.04610	142.02773	-247.75708	207.57391	4.72671	-268.11417	-144.53441	26.45695	377.26315	214.20348	162.29912	363.14520	19.45425	1197.92126	-329.53705	-74.68819	566.51776	-389.79227	84.60929	566.31403	-397.70935	-28.39402	568.58893	555.18591	129.11940	563.47253	549.75189	
943	9.420	-180.02742	140.76500	-246.97652	206.80788	4.71790	-267.91501	-145.23976	26.40337	377.26447	215.47646	160.85507	363.23984	19.13791	1197.41565	-329.23846	-74.85949	566.12225	-389.69519	84.51183	566.22534	-397.50034	-29.59187	568.80890	555.02972	128.24509	563.22870	549.29138	
944	9.430	-179.79756	137.11671	-245.85074	206.13121	4.71802	-267.88263	-145.83597	26.45115	377.36218	216.96388	157.54326	363.97107	18.77307	1197.44202	-329.31003	-75.12579	565.95050	-389.56079	84.32711	566.16016	-397.17029	-30.49347	568.91022	555.03174	127.22390	563.33881	549.50262	
945	9.440	-178.24005	132.13872	-244.99408	205.51028	4.56880	-268.03079	-146.39615	26.36403	377.51196	218.83972	153.16284	365.02609	18.03142	1197.91785	-329.44290	-75.95950	566.05310	-389.65491	84.55914	566.15527	-397.24738	-31.12192	569.18622	555.10742	126.19838	563.33960	549.79810	
946	9.450	-176.55333	126.25742	-244.44632	204.83728	4.45026	-267.95029	-147.49332	26.51699	377.49200	220.21524	148.07341	365.85596	18.96404	1197.91699	-328.45566	-76.06398	565.98596	-389.58719	84.32595	565.96759	-396.97720	-31.96355	569.05859	555.54590	125.71212	563.41180	550.05243	
947	9.460	-175.36531	120.27399	-244.20215	203.88322	4.33542	-268.06720	-148.36591	26.43173	377.41217	221.15434	141.91632	366.36911	18.59317	1197.73486	-328.01602	-76.09169	565.78705	-389.17892	83.82396	565.65845	-396.37500	-32.53946	568.86511	555.67578	124.92603	563.45343	550.39722	
948	9.470	-174.46605	113.99982	-244.48941	203.30608	4.26986	-267.90482	-148.92398	26.38436	377.33142	222.35957	134.88147	366.84259	17.31896	1197.26367	-328.02457	-76.07475	565.75690	-388.86591	83.84572	565.55121	-396.00046	-33.18599	568.74249	556.21008	124.50204	563.37158	550.79962	
949	9.480	-174.34209	107.23112	-244.89452	202.54994	4.06512	-267.93192	-149.47113	26.40157	377.09341	225.51569	127.09379	367.61121	16.60127	1197.06787	-328.33807	-76.10794	565.72357	-388.72592	83.80527	565.56628	-395.73221	-33.88539	568.76709	556.34686	123.67977	563.26514	551.16174	
950	9.490	-174.48482	99.49216	-245.36005	201.62389	4.03862	-267.78754	-150.97041	26.80119	377.11053	226.50861	118.19077	367.58215	16.73142	1196.87097	-327.77475	-75.99770	565.38306	-388.33246	83.69453	565.52740	-395.40726	-34.69358	568.66138	556.62018	122.80312	563.07739	551.53711	
951	9.500	-174.45726	90.11964	-245.37157	201.09235	3.98773	-267.57077	-151.54199	26.62286	377.28244	226.92610	108.95026	367.51297	16.53928	1196.87354	-327.54385	-76.18109	565.32013	-388.10046	83.43146	565.38239	-394.85629	-35.17659	568.59949	556.82458	123.14791	562.96625	551.73499	
952	9.510	-173.82175	79.77202	-244.67854	200.12044	4.00601	-267.78098	-152.17009	26.41771	377.07980	227.81604	100.30599	367.92514	16.10220	1196.72449	-327.18350	-76.40883	565.23834	-387.88525	83.93619	565.48846	-394.97440	-35.89569	568.52997	557.22858	121.39235	562.94202	552.07068	
953	9.520	-172.77127	69.25805	-243.50099	199.09845	3.81169	-267.78452	-153.24948	26.76084	377.17270	228.71523	91.42562	368.54507	15.95982	1196.81360	-326.90482	-76.54611	565.25848	-387.62677	83.55687	565.30414	-394.48483	-36.50427	568.62341	557.57001	120.95107	563.00214	552.48920	
954	9.530	-171.92882	59.03952	-242.04346	198.54758	3.81564	-267.61707	-154.03967	26.89340	377.15979	228.64880	82.69094	368.92453	16.00978	1196.75061	-326.26126	-76.96734	565.21887	-387.28528	83.31458	565.24774	-394.12857	-36.85999	568.57953	557.55762	120.83519	563.08838	552.79541	
955	9.540	-172.00278	49.82977	-240.99937	197.93182	3.87231	-267.54636	-154.63348	26.86911	377.12070	228.90918	74.49229	369.22952	15.94841	1196.76025	-325.90298	-77.33199	565.03021	-387.05188	83.28370	565.13202	-393.75775	-37.17348	568.59277	557.89532	120.01776	563.12140	553.12299	
956	9.550	-172.23932	40.97698	-240.10269	196.77528	3.78520	-267.56839	-155.56409	26.84057	376.97983	228.89635	66.73705	369.53531	15.84072	1196.74719	-325.74643	-76.82112	564.57294	-386.45853	82.71446	564.87146	-393.22769	-37.85040	568.42804	558.37140	119.47289	563.01843	553.39050	
957	9.560	-173.20190	33.08248	-239.55402	195.90155	3.57194	-267.62137	-156.60718	26.96930	377.15790	228.48140	58.93081	370.00543	15.36612	1196.44922	-325.54993	-77.91277	564.54828	-386.43338	82.30581	564.75488	-392.88428	-38.44704	568.11829	558.63428	119.00703	562.65369	553.92517	
958	9.570	-173.90775	25.59013	-238.88020	195.42891	3.56495	-267.47498	-157.39214	26.65956	377.16141	227.56926	52.16291	370.52512	14.65793	1196.05994	-325.26413	-77.92775	564.54877	-386.29596	82.65102	564.67322	-392.80316	-38.63662	567.85370	559.57709	118.65933	562.50537	554.34851	
959	9.580	-175.25124	19.05847	-238.48189	194.42815	3.48938	-267.47745	-158.20833	26.82478	377.15973	226.70882	45.51234	371.05334	13.92756	1196.09082	-325.49231	-78.03947	564.59650	-386.10797	82.44185	564.59576	-392.39923	-38.88926	567.72339	559.86340	118.46199	562.38379	554.73206	
960	9.590	-175.70950	12.82661	-237.90833	193.60550	3.31898	-267.43240	-159.13680	27.12748	377.30951	226.19342	39.32990	371.32599	12.91778	1196.10242	-324.85599	-78.49183	564.76971	-385.74469	82.25740	564.68890	-392.40176	-39.38191	567.79108	559.67920	119.35719	562.40594	554.86853	
961	9.600	-176.35257	8.05279	-238.48251	192.62897	3.28032	-267.44092	-160.04010	27.10953	377.44348	225.02448	34.23623	370.84290	12.82674	1195.94568	-324.21689	-78.62940	564.64783	-385.43692	82.20962	564.56659	-391.77396	-39.75912	567.72363	559.99371	118.70271	562.30530	555.18866	
962	9.610	-179.09103	7.36803	-240.44214	191.70880	3.16950	-267.36807	-160.84210	27.09370	377.38449	225.42783	34.15478	368.84320	13.17721	1195.89673	-323.62283	-78.42838	564.39410	-384.82837	81.56904	564.56006	-391.09427	-40.38059	567.78253	560.43054	116.78216	562.41516	555.63934	
963	9.620	-179.95296	6.01277	-239.14070	190.75650	3.29960	-267.22342	-161.53629	27.30555	377.36404	225.20654	32.94693	369.96329	13.21097	1196.56409	-323.35632	-78.29990	564.74945	-384.36472	81.37607	565.15881	-390.65799	-41.12102	568.50568	560.77124	115.54594	562.77051	555.69916	
964	9.630	-180.94052	7.41903	-239.46045	190.32642	5.29859	-267.38187	-162.36580	28.91775	377.07990	223.96991	33.49741	369.58282	13.95674	1197.15149	-322.79086	-78.52190	565.91064	-383.93954	81.65992	566.03918	-390.47342	-41.35697	569.42267	561.62708	115.79087	564.21545	556.65985	
965	9.640	-180.51978	6.36465	-238.34174	187.52472	8.65162	-265.10526	-161.08415	32.66592	377.80695	222.93680	31.95442	371.25397	14.47298	1198.48364	-322.45172	-78.46642	566.63062	-383.46402	81.56097	567.04425	-389.98267	-42.37437	569.65942	561.61487	115.10779	564.64697	557.15002	
966	9.650	-181.72197	7.45579	-239.86084	184.30023	13.36265	-261.50174	-159.02087	35.91739	381.13376	222.29912	32.52957	369.31213	14.71565	1199.44116	-321.94440	-78.64532	567.91205	-383.54236	81.48762	567.80096	-389.68854	-42.85495	569.71301	561.64044	114.61832	564.90369	557.46436	
967	9.660	-182.41821	6.70182	-239.44521	181.84818	22.54730	-259.35049	-156.35109	45.85441	381.25888	220.94002	32.25821	370.04056	14.33325	1200.58435	-321.59732	-79.31931	568.39087	-383.34644	80.95602	568.11017	-389.15198	-43.45119	570.04016	561.81909	113.84915	564.86914	557.66223	
968	9.670	-183.41571	6.21888	-239.39906	178.55615	32.97701	-258.48676	-155.35828	56.25550	380.81729	220.16260	32.27446	370.29068	15.03451	1200.74023	-320.65204	-79.57001	568.25250	-382.94864	80.39906	568.02020	-388.81082	-43.66727	570.37146	562.19763	113.34972	565.10284	558.02417	
